# File created by Blade
# Date/Time:  Wed Jan 21 18:02:19 2015
# Frame Rate: 120.000 fps
#------------------------------------------------------
:FULLY-SPECIFIED
:DEGREES
514
root 19.913060 37.878305 -18.722362 -180.081710 13.287992 -138.867670
Spine 18.826064 3.276071 45.726150
Head -17.610258 -2.711384 4.368812
LeftShoulder -3.215178 -26.538412 -5.892520
LeftArm -13.837805 13.195930 -68.014862
LeftForeArm -9.582357 -0.000000 0.762832
LeftHand -1.453519 0.000000 7.552094
LeftHandThumb1 -26.253704 0.000000 33.147579
RightShoulder 8.831832 -3.309026 2.498402
RightArm 52.768625 -38.096188 30.929185
RightForeArm -48.901686 -0.000000 4.787198
RightHand -3.996733 -0.000000 20.752042
RightHandThumb1 -24.326973 -0.000000 -32.862282
LeftUpLeg 3.763316 7.090540 35.540750
LeftLeg 12.918287 -0.000000 -0.000000
LeftFoot -25.689572 30.185578 -7.242102
LeftToeBase 22.871374 -0.000000 -0.000000
RightUpLeg -57.376548 -41.101691 -26.359079
RightLeg 10.536270 -0.000000 -0.000000
RightFoot -19.107971 -38.065395 11.012133
RightToeBase 17.385663 -0.000000 -0.000000
515
root 20.001769 37.902197 -18.744790 -180.300234 13.629969 -138.588866
Spine 19.507936 2.944980 46.363138
Head -17.772751 -2.526469 3.279573
LeftShoulder -3.544332 -26.646125 -6.165402
LeftArm -14.008537 12.913837 -67.909517
LeftForeArm -9.279213 -0.000000 0.692889
LeftHand -1.506447 -0.000000 7.460577
LeftHandThumb1 -26.253704 0.000000 33.147579
RightShoulder 9.230308 -3.008172 2.139134
RightArm 53.247858 -38.275553 30.693248
RightForeArm -48.845364 -0.000000 4.851482
RightHand -4.237156 -0.000000 20.589180
RightHandThumb1 -24.326973 -0.000000 -32.862282
LeftUpLeg 4.452516 7.321666 36.040679
LeftLeg 12.602181 -0.000000 -0.000000
LeftFoot -25.588848 30.124536 -7.534567
LeftToeBase 22.941529 -0.000000 -0.000000
RightUpLeg -58.903805 -42.073098 -26.293541
RightLeg 9.393133 -0.000000 -0.000000
RightFoot -18.741168 -38.531690 10.065784
RightToeBase 15.387622 -0.000000 -0.000000
516
root 20.087665 37.923785 -18.780897 -180.699527 13.990268 -138.378686
Spine 20.338543 2.533520 46.921293
Head -17.994651 -2.338249 2.250929
LeftShoulder -3.824299 -26.660903 -6.456775
LeftArm -14.135298 13.127866 -67.937322
LeftForeArm -9.483686 0.000000 0.697280
LeftHand -1.488657 -0.000000 7.137007
LeftHandThumb1 -26.253704 0.000000 33.147579
RightShoulder 9.792393 -2.630830 1.921251
RightArm 53.337746 -38.221808 30.690296
RightForeArm -48.939621 -0.000000 4.843574
RightHand -4.132946 -0.000000 20.601853
RightHandThumb1 -24.326973 -0.000000 -32.862282
LeftUpLeg 5.345094 7.436175 36.479638
LeftLeg 12.218839 -0.000000 -0.000000
LeftFoot -25.480462 30.067862 -7.838809
LeftToeBase 23.012410 -0.000000 -0.000000
RightUpLeg -60.348887 -42.952236 -26.178116
RightLeg 8.369768 -0.000000 -0.000000
RightFoot -18.563805 -38.958234 9.208550
RightToeBase 13.567551 -0.000000 -0.000000
517
root 20.173855 37.943874 -18.821688 -181.205788 14.378458 -138.185581
Spine 21.290297 2.048371 47.402105
Head -18.257540 -2.101382 1.286063
LeftShoulder -4.111423 -26.709640 -6.676552
LeftArm -14.216454 12.973667 -67.960545
LeftForeArm -9.420101 -0.000000 0.598217
LeftHand -1.377975 -0.000000 6.904712
LeftHandThumb1 -26.253704 0.000000 33.147579
RightShoulder 10.347773 -2.208871 1.675165
RightArm 53.225396 -38.066999 31.000063
RightForeArm -48.848613 0.000000 4.927510
RightHand -4.245826 -0.000000 20.550840
RightHandThumb1 -24.326973 -0.000000 -32.862282
LeftUpLeg 6.362445 7.455745 36.908944
LeftLeg 11.811291 -0.000000 -0.000000
LeftFoot -25.378558 30.043372 -8.096706
LeftToeBase 23.056988 -0.000000 -0.000000
RightUpLeg -61.811448 -43.729072 -25.915338
RightLeg 7.533661 -0.000000 -0.000000
RightFoot -18.612660 -39.321237 8.531553
RightToeBase 12.418411 -0.000000 -0.000000
518
root 20.261013 37.961108 -18.856086 -181.601921 14.784807 -137.956787
Spine 22.136833 1.660936 47.885257
Head -18.487527 -1.889162 0.416496
LeftShoulder -4.351279 -26.756302 -6.877422
LeftArm -14.374632 12.632545 -67.999907
LeftForeArm -9.166405 -0.000000 0.501199
LeftHand -1.207484 -0.000000 6.776027
LeftHandThumb1 -26.253704 0.000000 33.147579
RightShoulder 10.910446 -1.765566 1.512595
RightArm 53.163834 -38.015041 31.138643
RightForeArm -48.857989 0.000000 4.926867
RightHand -4.229280 -0.000000 20.491176
RightHandThumb1 -24.326973 -0.000000 -32.862282
LeftUpLeg 7.251648 7.520352 37.366886
LeftLeg 11.516417 -0.000000 -0.000000
LeftFoot -25.327633 29.979808 -8.361143
LeftToeBase 22.957772 -0.000000 -0.000000
RightUpLeg -63.559955 -44.447236 -25.282626
RightLeg 6.915697 -0.000000 -0.000000
RightFoot -18.605076 -39.669699 8.023356
RightToeBase 10.816160 -0.000000 -0.000000
519
root 20.349430 37.979029 -18.886003 -181.910743 15.198114 -137.678671
Spine 22.900319 1.316247 48.351957
Head -18.693698 -1.588326 -0.371824
LeftShoulder -4.607428 -26.836249 -7.023565
LeftArm -14.609544 12.251253 -68.098293
LeftForeArm -8.986463 0.000000 0.415889
LeftHand -1.095215 -0.000000 6.624832
LeftHandThumb1 -26.253704 0.000000 33.147579
RightShoulder 11.370145 -1.503633 1.387798
RightArm 53.368938 -37.922112 30.994097
RightForeArm -48.521880 -0.000000 4.934849
RightHand -4.214068 0.000000 20.522613
RightHandThumb1 -24.326973 -0.000000 -32.862282
LeftUpLeg 8.021489 7.583598 37.869326
LeftLeg 11.348510 -0.000000 -0.000000
LeftFoot -25.341637 29.882282 -8.645952
LeftToeBase 22.867051 -0.000000 -0.000000
RightUpLeg -65.497251 -45.094952 -24.287394
RightLeg 6.424718 -0.000000 -0.000000
RightFoot -18.688291 -39.922377 7.685131
RightToeBase 9.839358 -0.000000 -0.000000
520
root 20.434453 37.995415 -18.906035 -182.107331 15.589583 -137.355142
Spine 23.556681 1.033156 48.837926
Head -18.886899 -1.245682 -1.076189
LeftShoulder -4.820359 -26.925526 -7.155396
LeftArm -14.915757 11.805714 -68.245826
LeftForeArm -8.786716 -0.000000 0.354296
LeftHand -1.002628 0.000000 6.578570
LeftHandThumb1 -26.253704 0.000000 33.147579
RightShoulder 11.823681 -1.110745 1.247210
RightArm 53.232062 -37.784142 31.290295
RightForeArm -48.512888 -0.000000 5.037396
RightHand -4.221542 -0.000000 20.453881
RightHandThumb1 -24.326973 -0.000000 -32.862282
LeftUpLeg 8.618106 7.611466 38.381139
LeftLeg 11.295618 -0.000000 -0.000000
LeftFoot -25.355906 29.863116 -8.837417
LeftToeBase 22.765920 -0.000000 -0.000000
RightUpLeg -67.557078 -45.667413 -23.001855
RightLeg 6.025621 -0.000000 -0.000000
RightFoot -18.603487 -40.206509 7.444179
RightToeBase 8.774013 -0.000000 -0.000000
